<svg width="78" height="78" viewBox="0 0 78 78" fill="none" xmlns="http://www.w3.org/2000/svg">
<g clip-path="url(#clip0_13_15174)">
<path d="M34.9988 1.14258C16.3005 1.14258 1.14258 16.3005 1.14258 34.9988C1.14258 43.3057 4.13598 50.9124 9.10071 56.803H5.14373C3.78391 56.803 2.6814 57.9054 2.6814 59.2654C2.6814 60.6252 3.78376 61.7277 5.14373 61.7277H14.9928C16.3526 61.7277 17.4551 60.6253 17.4551 59.2654V49.4164C17.4551 48.0565 16.3527 46.954 14.9928 46.954C13.6328 46.954 12.5304 48.0564 12.5304 49.4164V53.2038C8.49134 48.2284 6.06694 41.8919 6.06694 34.999C6.06694 19.046 19.0456 6.06724 34.9987 6.06724C50.9518 6.06724 63.9304 19.0459 63.9304 34.999H68.855C68.8551 16.3005 53.6971 1.14258 34.9988 1.14258Z" fill="#F8F8F8"/>
<path d="M65.6987 20.711C64.6306 21.1062 63.6507 21.7294 62.8214 22.5588L61.6468 23.7333C63.1168 27.1975 63.9304 31.0048 63.9304 34.9988H68.855C68.8551 29.8929 67.7226 25.0523 65.6987 20.711Z" fill="#EBEBEB"/>
<path d="M33.6582 58.6863L26.0409 66.3035C24.8389 67.5055 24.8389 69.4543 26.0409 70.6563L30.4387 75.0541C32.0926 76.708 34.5395 77.2816 36.7563 76.5354C41.4762 74.9466 50.1295 70.854 60.4917 60.4917C70.854 50.1295 74.9467 41.476 76.5354 36.7563C77.2815 34.5395 76.708 32.0926 75.0541 30.4387L70.6563 26.0409C69.4543 24.8389 67.5055 24.8389 66.3035 26.0409L58.6863 33.6582C57.4843 34.8602 57.4843 36.809 58.6863 38.011L60.3269 39.6516C60.9113 40.236 61.0367 41.1362 60.6336 41.8577C59.3837 44.0953 56.4661 48.9368 52.7013 52.7015C48.9366 56.4662 44.0951 59.3839 41.8575 60.6337C41.136 61.0367 40.2358 60.9115 39.6514 60.3271L38.0108 58.6865C36.809 57.4843 34.8602 57.4843 33.6582 58.6863Z" fill="#90C7DF"/>
<path d="M75.0541 30.4387L72.2108 27.5954C73.8646 29.2492 74.4382 31.6962 73.692 33.9128C72.1032 38.6327 68.0107 47.286 57.6484 57.6482C47.2861 68.0105 38.6327 72.1032 33.9129 73.6919C31.6962 74.4381 29.2492 73.8645 27.5954 72.2106L30.4389 75.0541C32.0927 76.708 34.5397 77.2815 36.7564 76.5354C41.4763 74.9466 50.1296 70.854 60.4919 60.4917C70.8542 50.1295 74.9469 41.476 76.5355 36.7563C77.2815 34.5395 76.708 32.0926 75.0541 30.4387Z" fill="#2C9ACB"/>
<path d="M5.37621 51.4023C6.44262 53.3249 7.69336 55.1347 9.10102 56.8044H5.14313C3.7827 56.8044 2.68125 57.9059 2.68125 59.2663C2.68125 60.6252 3.7827 61.7282 5.14313 61.7282H14.9922C16.3526 61.7282 17.4555 60.6252 17.4555 59.2663V49.4173C17.4555 48.0568 16.3526 46.9554 14.9922 46.9554C13.6317 46.9554 12.5303 48.0568 12.5303 49.4173V53.2045C8.49164 48.229 6.06785 41.8915 6.06785 34.9995C6.06785 19.046 19.046 6.06786 34.9995 6.06786C48.9054 6.06786 60.5536 15.9336 63.3125 29.0322" stroke="black" stroke-width="2.28516" stroke-miterlimit="10" stroke-linecap="round" stroke-linejoin="round"/>
<path d="M3.16723 46.5532C1.85707 42.9487 1.14258 39.0564 1.14258 34.9995C1.14258 16.3008 16.3008 1.14258 34.9995 1.14258C42.4856 1.14258 49.4066 3.57398 55.0113 7.69031" stroke="black" stroke-width="2.28516" stroke-miterlimit="10" stroke-linecap="round" stroke-linejoin="round"/>
<path d="M67.4502 25.3165C65.8399 19.9113 62.9149 15.0714 59.0484 11.1698" stroke="black" stroke-width="2.28516" stroke-miterlimit="10" stroke-linecap="round" stroke-linejoin="round"/>
<path d="M27.6815 72.2969L39.6514 60.3269" stroke="black" stroke-width="2.28516" stroke-miterlimit="10" stroke-linecap="round" stroke-linejoin="round"/>
<path d="M72.2969 27.6815L60.3269 39.6514" stroke="black" stroke-width="2.28516" stroke-miterlimit="10" stroke-linecap="round" stroke-linejoin="round"/>
<path d="M58.5716 45.2735C59.4628 43.8979 60.1651 42.6959 60.6328 41.858C61.0365 41.1359 60.9116 40.2355 60.3266 39.652L58.6859 38.0113C57.4839 36.8093 57.4839 34.8608 58.6859 33.6588L66.3031 26.0416C67.505 24.8397 69.455 24.8397 70.657 26.0416L75.0537 30.4383C76.7081 32.0927 77.2809 34.5394 76.536 36.756C74.947 41.4756 70.8536 50.1287 60.4911 60.4911C50.1287 70.8536 41.4756 74.947 36.756 76.536C34.5394 77.2809 32.0927 76.7081 30.4383 75.0537L26.0416 70.657C24.8397 69.455 24.8397 67.505 26.0416 66.3031L33.6588 58.6859C34.8608 57.4839 36.8093 57.4839 38.0113 58.6859L39.652 60.3266C40.2355 60.9116 41.1359 61.0365 41.858 60.6328C44.0944 59.3836 48.9359 56.4662 52.7018 52.7018C53.6844 51.7192 54.6076 50.665 55.4592 49.6016" stroke="black" stroke-width="2.28516" stroke-miterlimit="10" stroke-linecap="round" stroke-linejoin="round"/>
<path d="M34.9988 10.9916V14.0696" stroke="black" stroke-width="2.28516" stroke-miterlimit="10" stroke-linecap="round" stroke-linejoin="round"/>
<path d="M22.9952 14.208L24.5342 16.8734" stroke="black" stroke-width="2.28516" stroke-miterlimit="10" stroke-linecap="round" stroke-linejoin="round"/>
<path d="M14.208 22.9952L16.8734 24.5342" stroke="black" stroke-width="2.28516" stroke-miterlimit="10" stroke-linecap="round" stroke-linejoin="round"/>
<path d="M10.9916 34.9988H14.0696" stroke="black" stroke-width="2.28516" stroke-miterlimit="10" stroke-linecap="round" stroke-linejoin="round"/>
<path d="M55.7897 22.9952L53.1241 24.5342" stroke="black" stroke-width="2.28516" stroke-miterlimit="10" stroke-linecap="round" stroke-linejoin="round"/>
<path d="M47.0023 14.208L45.4635 16.8734" stroke="black" stroke-width="2.28516" stroke-miterlimit="10" stroke-linecap="round" stroke-linejoin="round"/>
<path d="M42.1122 30.0743L39.7338 39.9234" stroke="black" stroke-width="2.28516" stroke-miterlimit="10" stroke-linecap="round" stroke-linejoin="round"/>
<path d="M46.8989 30.0743H52.3171L47.9875 39.9234" stroke="black" stroke-width="2.28516" stroke-miterlimit="10" stroke-linecap="round" stroke-linejoin="round"/>
<path d="M35.6949 37.0165H29.5101L34.4382 30.0743L34.4135 39.9234" stroke="black" stroke-width="2.28516" stroke-miterlimit="10" stroke-linecap="round" stroke-linejoin="round"/>
<path d="M20.7274 32.0716C20.9511 30.9331 21.9544 30.0743 23.1584 30.0743C24.5266 30.0743 25.6358 31.1835 25.6358 32.5517C25.6358 33.3637 25.2325 34.0222 24.5586 35.0281C21.4701 39.4409 21.1124 39.9234 21.1124 39.9234H25.6358" stroke="black" stroke-width="2.28516" stroke-miterlimit="10" stroke-linecap="round" stroke-linejoin="round"/>
</g>
<defs>
<clipPath id="clip0_13_15174">
<rect width="78" height="78" fill="white"/>
</clipPath>
</defs>
</svg>
