<svg width="78" height="78" viewBox="0 0 78 78" fill="none" xmlns="http://www.w3.org/2000/svg">
<path d="M48.1309 15.815C47.1359 15.815 46.1578 15.5594 45.29 15.0725L32.1377 7.69447C31.2699 7.20777 30.2917 6.95203 29.2968 6.95203H6.94686C3.74005 6.95203 1.14035 9.55172 1.14035 12.7585V65.2414C1.14035 68.4483 3.74005 71.048 6.94686 71.048H71.0531C74.26 71.048 76.8596 68.4483 76.8596 65.2414V21.6215C76.8596 18.4147 74.26 15.815 71.0531 15.815H48.1309Z" fill="#F8F8F8"/>
<path d="M20.1167 63.525C15.7621 63.525 12.232 59.9949 12.232 55.6403V6.95203H6.94686C3.74005 6.95203 1.14035 9.55172 1.14035 12.7585V65.2414C1.14035 68.4483 3.74005 71.048 6.94686 71.048H71.0531C74.26 71.048 76.8596 68.4483 76.8596 65.2414V63.5251L20.1167 63.525Z" fill="#90C7DF"/>
<path d="M38.3582 61.9391C49.4447 61.9391 58.432 52.9518 58.432 41.8653C58.432 30.7788 49.4447 21.7915 38.3582 21.7915C27.2718 21.7915 18.2844 30.7788 18.2844 41.8653C18.2844 52.9518 27.2718 61.9391 38.3582 61.9391Z" fill="#E1ECF1"/>
<path d="M38.8356 57.5667C47.4029 57.5667 54.3481 50.6216 54.3481 42.0543C54.3481 33.487 47.4029 26.5419 38.8356 26.5419C30.2684 26.5419 23.3232 33.487 23.3232 42.0543C23.3232 50.6216 30.2684 57.5667 38.8356 57.5667Z" fill="#F9F7F8"/>
<path d="M58.3254 26.5451L54.9442 23.0965C54.7022 22.8496 54.3058 22.8456 54.0589 23.0878L38.3079 38.5315C38.0568 38.7777 37.6523 38.7689 37.4122 38.5121L34.9911 35.9226C34.755 35.67 34.3588 35.6566 34.1062 35.8928L30.5783 39.191C30.3257 39.4271 30.3123 39.8233 30.5485 40.0759L35.5341 45.4088C35.7123 45.5994 35.9144 45.7614 36.1312 45.8985H39.3833C39.5621 45.7851 39.7309 45.6542 39.8844 45.5035L58.3169 27.4306C58.5637 27.1885 58.5677 26.792 58.3254 26.5451Z" fill="#2C9ACB"/>
<path d="M22.814 22.3072C22.1763 23.3798 21.2906 24.2697 20.1397 24.9644C19.6922 25.2346 19.6917 25.8911 20.1514 26.1399C21.2896 26.7555 22.2029 27.6643 22.8671 28.8977C23.1148 29.3576 23.761 29.3735 24.0413 28.9327C24.7496 27.8191 25.6922 26.924 26.8299 26.2107C27.2637 25.9387 27.2623 25.3019 26.8179 25.0477C25.5695 24.3337 24.6205 23.4246 23.9746 22.3133C23.7185 21.8724 23.0746 21.8689 22.814 22.3072Z" fill="#2C9ACB"/>
<path d="M64.6358 55.2065C63.8595 56.5124 62.781 57.5959 61.3796 58.4419C60.8348 58.7708 60.8341 59.5704 61.3939 59.8731C62.7797 60.6227 63.8919 61.7293 64.7006 63.2311C65.0021 63.7911 65.789 63.8104 66.1303 63.2737C66.9927 61.9177 68.1404 60.8278 69.5257 59.9593C70.0539 59.6282 70.0522 58.8529 69.5111 58.5433C67.9912 57.6739 66.8355 56.567 66.0491 55.214C65.7371 54.6771 64.9532 54.6728 64.6358 55.2065Z" fill="#2C9ACB"/>
<path d="M60.9501 9.25022C60.1737 10.5561 59.0953 11.6396 57.6938 12.4856C57.1491 12.8145 57.1483 13.6141 57.7081 13.9168C59.0939 14.6664 60.2061 15.773 61.0149 17.2748C61.3164 17.8348 62.1032 17.8541 62.4445 17.3174C63.307 15.9614 64.4546 14.8715 65.8399 14.003C66.3681 13.6719 66.3664 12.8966 65.8253 12.587C64.3054 11.7176 63.1499 10.6107 62.3634 9.25767C62.0514 8.72064 61.2674 8.71638 60.9501 9.25022Z" fill="#2C9ACB"/>
<path d="M71.0531 14.6746H70.1635C69.5336 14.6746 69.0232 15.1851 69.0232 15.815C69.0232 16.4449 69.5336 16.9553 70.1635 16.9553H71.0531C73.6261 16.9553 75.7193 19.0486 75.7193 21.6214V65.2413C75.7193 67.8142 73.6259 69.9075 71.0531 69.9075H6.94686C4.37408 69.9076 2.2807 67.8142 2.2807 65.2413V30.2702C2.2807 29.6403 1.77028 29.1299 1.14035 29.1299C0.510421 29.1299 0 29.6403 0 30.2702V65.2413C0 69.0718 3.11635 72.1882 6.94686 72.1882H71.053C74.8835 72.1882 77.9998 69.0718 77.9998 65.2413V21.6215C78 17.791 74.8836 14.6746 71.0531 14.6746Z" fill="black"/>
<path d="M1.14035 26.5509C1.77028 26.5509 2.2807 26.0404 2.2807 25.4105V12.7585C2.2807 10.1856 4.37408 8.09253 6.94687 8.09253H29.2968C30.0946 8.09253 30.8839 8.29871 31.5798 8.68916L44.7322 16.0672C45.7681 16.6484 46.9434 16.9555 48.131 16.9555H53.4058C54.0358 16.9555 54.5462 16.4451 54.5462 15.8151C54.5462 15.1852 54.0358 14.6748 53.4058 14.6748H48.131C47.3334 14.6748 46.544 14.4686 45.8479 14.0782L32.6957 6.70009C31.6599 6.11912 30.4848 5.81183 29.2968 5.81183H6.94687C3.11635 5.81168 0 8.92803 0 12.7585V25.4105C0 26.0403 0.510421 26.5509 1.14035 26.5509Z" fill="black"/>
<path d="M31.7195 24.5854C34.0261 23.6135 36.4756 23.1208 39 23.1208C41.6126 23.1208 44.1422 23.6484 46.5189 24.6889C46.6677 24.7541 46.823 24.785 46.9756 24.785C47.4149 24.785 47.8335 24.5297 48.0208 24.1017C48.2733 23.5248 48.0106 22.8523 47.4336 22.5998C44.7668 21.4322 41.9295 20.8403 39 20.8403C36.17 20.8403 33.4223 21.3933 30.834 22.4836C30.2537 22.7281 29.9815 23.397 30.2258 23.9773C30.4703 24.5574 31.1389 24.8297 31.7195 24.5854Z" fill="black"/>
<path d="M27.4324 59.4777C30.8698 61.7427 34.8698 62.9399 39 62.9399C50.6069 62.9399 60.0498 53.4971 60.0498 41.89C60.0498 39.2262 59.5587 36.6299 58.5899 34.1728C58.3589 33.587 57.697 33.2996 57.1106 33.5301C56.5246 33.7612 56.2371 34.4234 56.4679 35.0094C57.3312 37.1989 57.769 39.5139 57.769 41.89C57.769 52.2393 49.3492 60.6592 38.9998 60.6592C35.317 60.6592 31.7509 59.592 28.6873 57.5731C28.1613 57.2266 27.4542 57.372 27.1075 57.8979C26.7608 58.4238 26.9065 59.1311 27.4324 59.4777Z" fill="black"/>
<path d="M23.507 56.1387C23.7319 56.383 24.0388 56.507 24.3465 56.507C24.6225 56.507 24.8993 56.4074 25.1183 56.2059C25.5819 55.7794 25.6118 55.058 25.1853 54.5945C21.9902 51.1222 20.2307 46.6104 20.2307 41.8899C20.2307 39.1049 20.8272 36.4233 22.0033 33.92C22.2712 33.3499 22.0261 32.6707 21.4561 32.4028C20.8862 32.1352 20.2069 32.3802 19.939 32.9501C18.619 35.7591 17.9499 38.7669 17.9499 41.8899C17.9502 47.1841 19.9236 52.2443 23.507 56.1387Z" fill="black"/>
<path d="M39 58.3787C48.0918 58.3787 55.4884 50.982 55.4884 41.8902C55.4884 40.5378 55.3224 39.1897 54.995 37.8832C54.8419 37.2721 54.2231 36.9016 53.6115 37.0542C53.0006 37.2075 52.6295 37.8268 52.7826 38.4377C53.0646 39.563 53.2077 40.7247 53.2077 41.8902C53.2077 49.7243 46.8341 56.098 39 56.098C31.1659 56.098 24.7923 49.7243 24.7923 41.8902C24.7923 34.056 31.1659 27.6824 39 27.6824C40.3745 27.6824 41.7361 27.8804 43.047 28.2707C43.6511 28.4495 44.2856 28.1068 44.4655 27.5031C44.6452 26.8993 44.3016 26.2646 43.6979 26.0847C42.1755 25.6316 40.595 25.4017 39 25.4017C29.9082 25.4017 22.5116 32.7983 22.5116 41.8902C22.5116 50.9819 29.9082 58.3787 39 58.3787Z" fill="black"/>
<path d="M53.2605 22.2736L37.8855 37.3486L35.8239 35.1435C35.1586 34.4322 34.0386 34.3945 33.3273 35.0597L29.7992 38.3579C29.4545 38.6802 29.2563 39.1174 29.2403 39.5889C29.2245 40.0605 29.3933 40.5101 29.7155 40.8545L34.7009 46.1872C34.9366 46.4393 35.2124 46.6663 35.5211 46.8617C35.7035 46.9774 35.9152 47.0387 36.1312 47.0387H39.3833C39.5997 47.0387 39.8115 46.9771 39.9944 46.8613C40.2467 46.701 40.4785 46.5181 40.6829 46.3177L47.05 40.0748C47.4996 39.6339 47.5068 38.912 47.0658 38.4622C46.6247 38.0123 45.9028 38.0058 45.4532 38.4464L39.0861 44.6894C39.0622 44.7127 39.0374 44.7358 39.0116 44.7582H36.5011C36.4533 44.717 36.4084 44.6741 36.3672 44.63L31.7328 39.6727L34.5095 37.0769L36.5791 39.2907C36.9068 39.6415 37.3517 39.8402 37.8314 39.8507C38.3157 39.8632 38.7641 39.6818 39.1063 39.3461L54.4903 24.2624L57.1514 26.9766L48.9369 35.031C48.4873 35.4719 48.4802 36.1938 48.9211 36.6436C49.3622 37.0935 50.0841 37.1 50.5337 36.6594L59.1152 28.2451C59.4523 27.9147 59.6404 27.473 59.6449 27.0009C59.6495 26.5291 59.4704 26.0839 59.14 25.7468L55.7589 22.2984C55.4285 21.9613 54.9868 21.7732 54.5147 21.7687C54.0359 21.7673 53.5976 21.9434 53.2605 22.2736Z" fill="black"/>
<path d="M21.8633 29.4384C22.1722 30.0121 22.7448 30.3689 23.395 30.3923C23.4178 30.3932 23.4407 30.3937 23.4635 30.3937C24.0915 30.3937 24.6634 30.0799 25.0036 29.5447C25.6036 28.6012 26.3993 27.8268 27.4358 27.177C27.9859 26.832 28.3065 26.239 28.2935 25.5905C28.2804 24.9489 27.9404 24.376 27.3842 24.0579C26.2991 23.4371 25.5063 22.679 24.9609 21.7404C24.6352 21.1798 24.0523 20.8435 23.4017 20.8401C23.3985 20.8401 23.3954 20.8401 23.3921 20.8401C22.7454 20.8401 22.1635 21.1702 21.8341 21.7244C21.2815 22.6536 20.5345 23.3939 19.5503 23.9883C18.9891 24.3272 18.6501 24.9445 18.6657 25.5994C18.6812 26.2548 19.0338 26.8317 19.609 27.1429C20.5756 27.666 21.3132 28.4166 21.8633 29.4384ZM23.7942 22.89C23.7942 22.8902 23.7941 22.8905 23.7938 22.8908C23.7939 22.8906 23.7941 22.8903 23.7942 22.89ZM23.3903 23.5078C23.9758 24.3272 24.7236 25.0439 25.624 25.6485C24.7933 26.2478 24.0804 26.9421 23.4938 27.7221C22.9162 26.8397 22.1982 26.1072 21.3489 25.5335C22.1506 24.9612 22.8339 24.2831 23.3903 23.5078Z" fill="black"/>
<path d="M60.8514 60.8762C62.0725 61.5367 63.0032 62.4838 63.6967 63.7716C64.0306 64.392 64.6497 64.7774 65.3525 64.8029C65.3772 64.8038 65.4019 64.8043 65.4265 64.8043C66.1057 64.8043 66.7244 64.4648 67.0926 63.8856C67.8434 62.705 68.8375 61.7368 70.1313 60.9254C70.7265 60.5525 71.0735 59.9108 71.0594 59.2094C71.0454 58.5161 70.6782 57.8971 70.0772 57.5533C68.7171 56.7753 67.7218 55.8224 67.0349 54.6407C66.6832 54.0354 66.0531 53.6719 65.3499 53.6682C65.3465 53.6682 65.343 53.6682 65.3397 53.6682C64.6406 53.6682 64.0117 54.0249 63.6558 54.6236C62.9714 55.7746 62.0073 56.7308 60.7903 57.4655C60.1829 57.8322 59.816 58.5001 59.8327 59.2088C59.8494 59.9169 60.2303 60.54 60.8514 60.8762ZM65.3382 56.231C66.1218 57.4203 67.1825 58.4386 68.5009 59.2669C67.2755 60.1004 66.252 61.0983 65.4489 62.242C64.6678 60.9495 63.6469 59.9096 62.4053 59.1415C63.5934 58.3502 64.577 57.3741 65.3382 56.231Z" fill="black"/>
<path d="M57.1657 14.9197C58.3867 15.5804 59.3174 16.5275 60.0109 17.8155C60.345 18.4357 60.9639 18.8211 61.6667 18.8465C61.6915 18.8474 61.7161 18.8479 61.7407 18.8479C62.4198 18.8479 63.0386 18.5082 63.4069 17.9292C64.1577 16.7486 65.1518 15.7803 66.4455 14.969C67.0408 14.596 67.3878 13.9544 67.3736 13.253C67.3596 12.5597 66.9924 11.9407 66.3914 11.5969C65.0313 10.8189 64.036 9.866 63.3491 8.6843C62.9974 8.079 62.3673 7.71545 61.6641 7.7118C60.9661 7.70648 60.3276 8.06562 59.9699 8.66711C59.2855 9.81811 58.3214 10.7743 57.1044 11.509C56.497 11.8758 56.1301 12.5439 56.1468 13.2525C56.1638 13.9608 56.5447 14.5839 57.1657 14.9197ZM61.6522 10.2746C62.4359 11.4639 63.4966 12.4821 64.815 13.3105C63.5896 14.144 62.5659 15.142 61.7629 16.2856C60.9819 14.9932 59.961 13.9535 58.7194 13.1852C59.9077 12.3938 60.8913 11.4176 61.6522 10.2746Z" fill="black"/>
</svg>
