<svg width="78" height="78" viewBox="0 0 78 78" fill="none" xmlns="http://www.w3.org/2000/svg">
<path fill-rule="evenodd" clip-rule="evenodd" d="M46.05 2.51443H68.1524C68.5719 2.51443 68.9331 2.66404 69.2299 2.9608L75.1163 8.84721C75.4131 9.14398 75.5627 9.50503 75.5627 9.92474V47.2063C75.5627 48.0456 74.8782 48.7302 74.0388 48.7302H46.05C45.2108 48.7302 44.5261 48.0457 44.5261 47.2063V4.03818C44.5261 3.19892 45.2106 2.51443 46.05 2.51443Z" fill="#ECEFF1"/>
<path fill-rule="evenodd" clip-rule="evenodd" d="M46.05 2.51443H47.6636V48.73H46.05C45.2108 48.73 44.5261 48.0456 44.5261 47.2061V4.03818C44.5261 3.19892 45.2106 2.51443 46.05 2.51443Z" fill="#D1D1D6"/>
<path fill-rule="evenodd" clip-rule="evenodd" d="M68.7835 8.22656V2.64651C68.9453 2.7204 69.0943 2.82521 69.2299 2.9608L75.1163 8.84721C75.2517 8.98264 75.3567 9.13164 75.4306 9.29342H69.8504C69.2628 9.29342 68.7835 8.81415 68.7835 8.22656Z" fill="#D1D1D6"/>
<path fill-rule="evenodd" clip-rule="evenodd" d="M31.95 2.51443H9.84765C9.4281 2.51443 9.06689 2.66404 8.77013 2.9608L2.88387 8.84706C2.5871 9.14383 2.4375 9.50503 2.4375 9.92459V47.2061C2.4375 48.0454 3.12198 48.73 3.96139 48.73H31.9501C32.7894 48.73 33.474 48.0456 33.474 47.2061V4.03818C33.4739 3.19892 32.7894 2.51443 31.95 2.51443Z" fill="#ECEFF1"/>
<path fill-rule="evenodd" clip-rule="evenodd" d="M31.95 2.51443H30.3364V48.73H31.95C32.7893 48.73 33.4739 48.0456 33.4739 47.2061V4.03818C33.4739 3.19892 32.7894 2.51443 31.95 2.51443Z" fill="#D1D1D6"/>
<path fill-rule="evenodd" clip-rule="evenodd" d="M9.21649 8.22656V2.64651C9.0547 2.7204 8.90571 2.82521 8.77012 2.9608L2.88387 8.84706C2.74843 8.98249 2.64362 9.13148 2.56958 9.29327H8.14978C8.73722 9.29342 9.21649 8.81415 9.21649 8.22656Z" fill="#D1D1D6"/>
<path fill-rule="evenodd" clip-rule="evenodd" d="M38.048 62.6553C40.7526 62.4981 42.1048 62.4195 42.1048 62.4195L41.9317 50.9145C39.225 50.9276 37.8717 50.9343 37.8717 50.9343L38.048 62.6553Z" fill="#A79BA7"/>
<path fill-rule="evenodd" clip-rule="evenodd" d="M41.1744 62.4734L42.1046 62.4193L41.9315 50.9143C39.225 50.9274 37.8716 50.934 37.8716 50.934L37.8763 51.2445L41.0053 51.2292L41.1744 62.4734Z" fill="#837683"/>
<path fill-rule="evenodd" clip-rule="evenodd" d="M37.8135 75.4854L42.395 75.4164C43.1995 75.4044 43.8477 74.7362 43.8357 73.9317L43.6506 61.6186C43.6386 60.8141 42.9702 60.1656 42.1659 60.1778L37.5844 60.2468C36.78 60.2588 36.1314 60.9271 36.1436 61.7317L36.3288 74.0447C36.3408 74.8491 37.0089 75.4974 37.8135 75.4854Z" fill="#2C9ACB"/>
<path fill-rule="evenodd" clip-rule="evenodd" d="M37.8136 75.4854L42.3948 75.4164C43.1189 75.4056 43.7161 74.8634 43.8197 74.1687C43.7566 74.1782 43.6922 74.1835 43.6268 74.1844L39.0454 74.2534C38.2407 74.2654 37.5727 73.6171 37.5607 72.8125L37.3754 60.4997C37.3742 60.4191 37.3797 60.3399 37.3913 60.2626C36.6787 60.3687 36.1323 60.9927 36.1436 61.7317L36.3288 74.0445C36.3408 74.8491 37.0089 75.4974 37.8136 75.4854Z" fill="#A5D1E4"/>
<path d="M39 53.3977C47.8879 53.3977 55.093 46.1926 55.093 37.3047C55.093 28.4168 47.8879 21.2117 39 21.2117C30.1121 21.2117 22.907 28.4168 22.907 37.3047C22.907 46.1926 30.1121 53.3977 39 53.3977Z" fill="#90C7DF"/>
<path fill-rule="evenodd" clip-rule="evenodd" d="M50.3795 25.9252C56.6641 32.2099 56.6643 42.3994 50.3795 48.6842C44.0948 54.9688 33.9052 54.9688 27.6205 48.6842C27.4138 48.4775 27.2144 48.2663 27.0212 48.0515C33.3394 53.7297 43.0694 53.5302 49.1475 47.4523C55.2255 41.3743 55.4249 31.6444 49.7468 25.3261C49.9616 25.5189 50.1727 25.7185 50.3795 25.9252Z" fill="#B8D9E8"/>
<path d="M39 48.7306C45.3105 48.7306 50.4261 43.615 50.4261 37.3046C50.4261 30.9941 45.3105 25.8785 39 25.8785C32.6895 25.8785 27.5739 30.9941 27.5739 37.3046C27.5739 43.615 32.6895 48.7306 39 48.7306Z" fill="#ECEFF1"/>
<path fill-rule="evenodd" clip-rule="evenodd" d="M47.0794 29.2252C47.2397 29.3854 47.3935 29.5498 47.5422 29.7169C43.0552 25.7242 36.1769 25.878 31.875 30.1799C27.5732 34.4818 27.4193 41.3601 31.4122 45.8471C31.2451 45.6983 31.0807 45.5445 30.9204 45.3843C26.4583 40.9221 26.4583 33.6875 30.9204 29.2253C35.3826 24.7632 42.6172 24.763 47.0794 29.2252Z" fill="#D1D1D6"/>
<path fill-rule="evenodd" clip-rule="evenodd" d="M49.207 37.3052C49.207 31.677 44.6282 27.0985 38.9998 27.0985C33.372 27.0985 28.7928 31.6768 28.7928 37.3052C28.7928 42.9335 33.372 47.5119 38.9998 47.5119C44.6282 47.5119 49.207 42.9335 49.207 37.3052ZM38.9998 49.9493C32.0277 49.9493 26.3555 44.2773 26.3555 37.3053C26.3555 30.3333 32.0278 24.6614 38.9998 24.6614C45.9722 24.6614 51.6445 30.3333 51.6445 37.3053C51.6445 44.2773 45.9722 49.9493 38.9998 49.9493ZM69.5486 17.1536H50.54C49.867 17.1536 49.321 17.6993 49.321 18.3727C49.321 19.0453 49.867 19.5917 50.54 19.5917H69.5487C70.2218 19.5917 70.7675 19.0453 70.7675 18.3727C70.7673 17.6993 70.2218 17.1536 69.5486 17.1536ZM50.54 11.8165H63.6687C64.3421 11.8165 64.8878 11.2709 64.8878 10.5983C64.8878 9.92489 64.3421 9.3792 63.6687 9.3792H50.54C49.867 9.3792 49.321 9.92489 49.321 10.5983C49.321 11.2709 49.867 11.8165 50.54 11.8165ZM74.3433 47.5119H52.9727C53.9911 46.1222 54.8076 44.5749 55.3779 42.9142H69.5486C70.2216 42.9142 70.7673 42.3685 70.7673 41.6959C70.7673 41.0225 70.2216 40.4768 69.5486 40.4768H56.0189C56.21 39.4485 56.3111 38.3888 56.3111 37.3052C56.3111 36.5716 56.2648 35.8495 56.1761 35.1404H69.5486C70.2216 35.1404 70.7673 34.5939 70.7673 33.9213C70.7673 33.248 70.2216 32.7023 69.5486 32.7023H55.6888C55.1547 30.7676 54.2921 28.9671 53.1651 27.3652H69.5486C70.2216 27.3652 70.7673 26.8203 70.7673 26.1469C70.7673 25.4736 70.2216 24.9279 69.5486 24.9279H51.0898C49.5564 23.4293 47.7468 22.2123 45.7447 21.3619V3.73456H67.5648V9.29449C67.5648 9.96785 68.1105 10.5128 68.7835 10.5128H74.3434L74.3433 47.5119ZM40.7669 54.527C40.2332 54.5823 39.6924 54.611 39.1456 54.6152L39.2118 59.0029L40.8341 58.9785L40.7669 54.527ZM42.6168 73.9493L42.4317 61.6374C42.4305 61.555 42.39 61.4997 42.3563 61.4667C42.3232 61.4344 42.2669 61.3965 42.1876 61.3965C42.1863 61.3965 42.1852 61.3965 42.1837 61.3965L37.6026 61.4646C37.521 61.4667 37.465 61.5076 37.4322 61.5412C37.3995 61.5743 37.3608 61.6323 37.3622 61.7134L37.5471 74.0261C37.5492 74.158 37.6633 74.2635 37.795 74.2664L42.3764 74.1975C42.5089 74.196 42.6186 74.082 42.6168 73.9493ZM39 52.1793C30.7986 52.1793 24.1259 45.5069 24.1259 37.3052C24.1259 29.1041 30.7986 22.4311 39 22.4311C43.0948 22.4311 46.8084 24.0947 49.5008 26.7816C49.5946 26.935 49.7204 27.0655 49.8702 27.1644C52.3522 29.8233 53.8738 33.3899 53.8738 37.3052C53.8738 45.5071 47.2014 52.1793 39 52.1793ZM3.6561 47.5119V10.5128H9.21649C9.88955 10.5128 10.4352 9.96785 10.4352 9.29449V3.73456H32.2553V21.3621C30.253 22.2125 28.4439 23.4294 26.9103 24.928H8.45142C7.77806 24.928 7.23237 25.4737 7.23237 26.1471C7.23237 26.8204 7.77806 27.3654 8.45142 27.3654H24.8346C23.7074 28.9673 22.845 30.7678 22.3109 32.7024H8.45142C7.77806 32.7024 7.23237 33.2481 7.23237 33.9215C7.23237 34.5941 7.77806 35.1405 8.45142 35.1405H21.8239C21.7349 35.8497 21.6886 36.5718 21.6886 37.3053C21.6886 38.3888 21.7897 39.4487 21.9811 40.477H8.45142C7.77806 40.477 7.23237 41.0227 7.23237 41.696C7.23237 42.3686 7.77806 42.9143 8.45142 42.9143H22.6218C23.1922 44.575 24.0086 46.1225 25.027 47.5121H3.6561V47.5119ZM5.37987 8.07559H7.99774V5.45757L5.37987 8.07559ZM70.0021 8.07559H72.62L70.0021 5.45757V8.07559ZM76.7814 9.29449V48.7302C76.7814 49.4034 76.2357 49.9493 75.5623 49.9493H50.81C48.6971 51.9247 46.0908 53.3768 43.1983 54.1003L43.2749 59.19C43.5592 59.3182 43.8231 59.4933 44.0535 59.7177C44.5686 60.2168 44.8581 60.8859 44.8686 61.6L45.0538 73.9128C45.0759 75.392 43.8912 76.6126 42.4128 76.6355L37.8318 76.7036C37.8184 76.7036 37.8044 76.7036 37.7908 76.7036C36.3306 76.7036 35.1325 75.5276 35.1101 74.0619L34.925 61.75C34.914 61.035 35.1835 60.3589 35.6832 59.844C35.9924 59.5242 36.3669 59.2925 36.7764 59.16L36.7059 54.4646C33.0533 53.9784 29.7576 52.35 27.1899 49.9493H2.43735C1.76429 49.9493 1.2186 49.4036 1.2186 48.7302V9.29449C1.2186 8.97107 1.34718 8.66135 1.57569 8.43253L8.35468 1.65339C8.58305 1.42472 8.89307 1.2963 9.21634 1.2963H33.4739C34.1469 1.2963 34.6926 1.84199 34.6926 2.51535V20.5365C36.0701 20.1823 37.5136 19.9937 39.0002 19.9937C40.4864 19.9937 41.9297 20.1823 43.3072 20.5365V2.5155C43.3072 1.84214 43.8529 1.29645 44.526 1.29645H68.7835C69.1068 1.29645 69.4168 1.42487 69.6452 1.65354L76.4245 8.43269C76.653 8.66135 76.7814 8.97122 76.7814 9.29449ZM8.45142 19.5916H27.4601C28.133 19.5916 28.6789 19.0451 28.6789 18.3725C28.6789 17.6991 28.133 17.1535 27.4601 17.1535H8.45142C7.77806 17.1535 7.23237 17.6991 7.23237 18.3725C7.23252 19.0453 7.77806 19.5916 8.45142 19.5916ZM13.1121 10.5983C13.1121 11.2709 13.6578 11.8165 14.3311 11.8165H27.4601C28.133 11.8165 28.6789 11.2709 28.6789 10.5983C28.6789 9.92489 28.133 9.3792 27.4601 9.3792H14.3311C13.6578 9.3792 13.1121 9.92489 13.1121 10.5983Z" fill="black"/>
</svg>
