<svg width="444" height="81" viewBox="0 0 444 81" fill="none" xmlns="http://www.w3.org/2000/svg">
<path d="M41.2661 12.7153C41.2661 12.7153 36.7424 26.2903 41.2661 37.6556C45.7898 49.0208 55.1689 66.6799 51.3085 76.6104C51.3085 76.6104 63.7767 63.8106 58.9213 48.9128C54.0659 34.015 45.57 31.3655 41.2661 12.7153Z" fill="#90C7DF"/>
<path d="M67.533 20.3821C67.3363 30.0581 62.3652 34.4623 58.2117 38.3535C59.7312 41.0146 61.1658 44.0342 62.3845 47.7789C62.9051 49.3794 63.2561 50.9567 63.4643 52.4993C66.538 49.2637 75.2422 35.5923 67.5291 20.3821H67.533Z" fill="#90C7DF"/>
<path d="M46.4532 79.0516C46.4532 79.0516 46.8812 79.0516 47.9148 75.2914C49.8431 68.2802 44.8527 55.3146 40.6915 45.6732C40.4717 45.1603 40.2518 44.6551 40.0359 44.1538C39.7466 43.5251 39.4767 42.8965 39.2337 42.2756C38.7555 41.1457 38.3004 40.0504 37.8801 39.0014C36.2218 34.8402 35.6433 30.463 35.6124 26.46C23.3178 48.1838 36.538 65.7118 41.5939 70.9837C44.467 73.9802 46.5457 77.5359 46.4493 79.0516H46.4532Z" fill="#F6BD7A"/>
<path d="M27.2553 38.5657C27.2553 40.9876 25.2923 42.9545 22.8666 42.9545C20.4408 42.9545 18.4778 40.9915 18.4778 38.5657C18.4778 36.14 20.4408 34.177 22.8666 34.177C25.2923 34.177 27.2553 36.14 27.2553 38.5657Z" fill="#F6BD7A"/>
<path d="M60.7956 26.5064C60.7956 29.0671 58.7208 31.142 56.16 31.142C53.5993 31.142 51.5245 29.0671 51.5245 26.5064C51.5245 23.9457 53.5993 21.8708 56.16 21.8708C58.7208 21.8708 60.7956 23.9457 60.7956 26.5064Z" fill="#90C7DF"/>
<path d="M27.9611 53.4982C15.7435 47.0462 13.2445 38.5657 13.2445 38.5657C13.3294 41.2498 13.6302 43.7373 14.1045 46.0474C15.786 52.7346 20.6143 62.2641 34.2626 67.5745C31.9063 64.0574 29.3648 59.256 27.9649 53.4982H27.9611Z" fill="#F6C993"/>
<path d="M42.8049 79.0517C42.6506 78.2225 41.2738 75.9009 38.9715 73.5021C38.5125 73.0239 37.8376 72.2834 37.0316 71.3039C18.8558 69.8268 4.5673 54.6089 4.5673 36.0551C4.56344 22.214 12.5156 10.2318 24.1007 4.42383C10.4485 10.791 0.988434 24.6398 0.988434 40.6946C0.988434 62.7925 18.902 80.7061 41 80.7061C41.5708 80.7061 42.1377 80.6907 42.7007 80.6676C42.7007 80.6676 43.1172 80.7061 42.8049 79.0517Z" fill="#F78600"/>
<path d="M42.2341 0.706055L42.2456 0.763903C60.703 1.95557 75.3039 17.3007 75.3039 36.0551C75.3039 46.8649 70.4524 56.5449 62.8087 63.0316C60.9074 70.5595 56.4955 76.2209 54.6907 78.3034C70.0436 72.7115 81.0115 57.9872 81.0115 40.6983C81.0077 19.013 63.7574 1.35781 42.2341 0.706055Z" fill="#2C9ACB"/>
<path d="M117.243 55.7061L115.255 49.1811H105.262L103.274 55.7061H97.0116L106.687 28.1811H113.793L123.505 55.7061H117.243ZM113.868 44.3061L111.88 37.9311C111.755 37.5061 111.587 36.9623 111.374 36.2998C111.174 35.6248 110.968 34.9436 110.755 34.2561C110.555 33.5561 110.393 32.9498 110.268 32.4373C110.143 32.9498 109.968 33.5873 109.743 34.3498C109.53 35.0998 109.324 35.8123 109.124 36.4873C108.924 37.1623 108.78 37.6436 108.693 37.9311L106.724 44.3061H113.868ZM141.149 49.4811C141.149 50.9061 140.812 52.1123 140.137 53.0998C139.474 54.0748 138.48 54.8186 137.155 55.3311C135.83 55.8311 134.18 56.0811 132.205 56.0811C130.743 56.0811 129.487 55.9873 128.437 55.7998C127.399 55.6123 126.349 55.2998 125.287 54.8623V50.1373C126.424 50.6498 127.643 51.0748 128.943 51.4123C130.255 51.7373 131.405 51.8998 132.393 51.8998C133.505 51.8998 134.299 51.7373 134.774 51.4123C135.262 51.0748 135.505 50.6373 135.505 50.0998C135.505 49.7498 135.405 49.4373 135.205 49.1623C135.018 48.8748 134.605 48.5561 133.968 48.2061C133.33 47.8436 132.33 47.3748 130.968 46.7998C129.655 46.2498 128.574 45.6936 127.724 45.1311C126.887 44.5686 126.262 43.9061 125.849 43.1436C125.449 42.3686 125.249 41.3873 125.249 40.1998C125.249 38.2623 125.999 36.8061 127.499 35.8311C129.012 34.8436 131.03 34.3498 133.555 34.3498C134.855 34.3498 136.093 34.4811 137.268 34.7436C138.455 35.0061 139.674 35.4248 140.924 35.9998L139.199 40.1248C138.162 39.6748 137.18 39.3061 136.255 39.0186C135.343 38.7311 134.412 38.5873 133.462 38.5873C132.624 38.5873 131.993 38.6998 131.568 38.9248C131.143 39.1498 130.93 39.4936 130.93 39.9561C130.93 40.2936 131.037 40.5936 131.249 40.8561C131.474 41.1186 131.899 41.4123 132.524 41.7373C133.162 42.0498 134.093 42.4561 135.318 42.9561C136.505 43.4436 137.537 43.9561 138.412 44.4936C139.287 45.0186 139.962 45.6748 140.437 46.4623C140.912 47.2373 141.149 48.2436 141.149 49.4811ZM160.237 49.4811C160.237 50.9061 159.899 52.1123 159.224 53.0998C158.562 54.0748 157.568 54.8186 156.243 55.3311C154.918 55.8311 153.268 56.0811 151.293 56.0811C149.83 56.0811 148.574 55.9873 147.524 55.7998C146.487 55.6123 145.437 55.2998 144.374 54.8623V50.1373C145.512 50.6498 146.73 51.0748 148.03 51.4123C149.343 51.7373 150.493 51.8998 151.48 51.8998C152.593 51.8998 153.387 51.7373 153.862 51.4123C154.349 51.0748 154.593 50.6373 154.593 50.0998C154.593 49.7498 154.493 49.4373 154.293 49.1623C154.105 48.8748 153.693 48.5561 153.055 48.2061C152.418 47.8436 151.418 47.3748 150.055 46.7998C148.743 46.2498 147.662 45.6936 146.812 45.1311C145.974 44.5686 145.349 43.9061 144.937 43.1436C144.537 42.3686 144.337 41.3873 144.337 40.1998C144.337 38.2623 145.087 36.8061 146.587 35.8311C148.099 34.8436 150.118 34.3498 152.643 34.3498C153.943 34.3498 155.18 34.4811 156.355 34.7436C157.543 35.0061 158.762 35.4248 160.012 35.9998L158.287 40.1248C157.249 39.6748 156.268 39.3061 155.343 39.0186C154.43 38.7311 153.499 38.5873 152.549 38.5873C151.712 38.5873 151.08 38.6998 150.655 38.9248C150.23 39.1498 150.018 39.4936 150.018 39.9561C150.018 40.2936 150.124 40.5936 150.337 40.8561C150.562 41.1186 150.987 41.4123 151.612 41.7373C152.249 42.0498 153.18 42.4561 154.405 42.9561C155.593 43.4436 156.624 43.9561 157.499 44.4936C158.374 45.0186 159.049 45.6748 159.524 46.4623C159.999 47.2373 160.237 48.2436 160.237 49.4811ZM170.418 34.7436V55.7061H164.699V34.7436H170.418ZM167.568 26.5311C168.418 26.5311 169.149 26.7311 169.762 27.1311C170.374 27.5186 170.68 28.2498 170.68 29.3248C170.68 30.3873 170.374 31.1248 169.762 31.5373C169.149 31.9373 168.418 32.1373 167.568 32.1373C166.705 32.1373 165.968 31.9373 165.355 31.5373C164.755 31.1248 164.455 30.3873 164.455 29.3248C164.455 28.2498 164.755 27.5186 165.355 27.1311C165.968 26.7311 166.705 26.5311 167.568 26.5311ZM191.062 49.4811C191.062 50.9061 190.724 52.1123 190.049 53.0998C189.387 54.0748 188.393 54.8186 187.068 55.3311C185.743 55.8311 184.093 56.0811 182.118 56.0811C180.655 56.0811 179.399 55.9873 178.349 55.7998C177.312 55.6123 176.262 55.2998 175.199 54.8623V50.1373C176.337 50.6498 177.555 51.0748 178.855 51.4123C180.168 51.7373 181.318 51.8998 182.305 51.8998C183.418 51.8998 184.212 51.7373 184.687 51.4123C185.174 51.0748 185.418 50.6373 185.418 50.0998C185.418 49.7498 185.318 49.4373 185.118 49.1623C184.93 48.8748 184.518 48.5561 183.88 48.2061C183.243 47.8436 182.243 47.3748 180.88 46.7998C179.568 46.2498 178.487 45.6936 177.637 45.1311C176.799 44.5686 176.174 43.9061 175.762 43.1436C175.362 42.3686 175.162 41.3873 175.162 40.1998C175.162 38.2623 175.912 36.8061 177.412 35.8311C178.924 34.8436 180.943 34.3498 183.468 34.3498C184.768 34.3498 186.005 34.4811 187.18 34.7436C188.368 35.0061 189.587 35.4248 190.837 35.9998L189.112 40.1248C188.074 39.6748 187.093 39.3061 186.168 39.0186C185.255 38.7311 184.324 38.5873 183.374 38.5873C182.537 38.5873 181.905 38.6998 181.48 38.9248C181.055 39.1498 180.843 39.4936 180.843 39.9561C180.843 40.2936 180.949 40.5936 181.162 40.8561C181.387 41.1186 181.812 41.4123 182.437 41.7373C183.074 42.0498 184.005 42.4561 185.23 42.9561C186.418 43.4436 187.449 43.9561 188.324 44.4936C189.199 45.0186 189.874 45.6748 190.349 46.4623C190.824 47.2373 191.062 48.2436 191.062 49.4811ZM204.355 51.5248C204.98 51.5248 205.587 51.4623 206.174 51.3373C206.774 51.2123 207.368 51.0561 207.955 50.8686V55.1248C207.343 55.3998 206.58 55.6248 205.668 55.7998C204.768 55.9873 203.78 56.0811 202.705 56.0811C201.455 56.0811 200.33 55.8811 199.33 55.4811C198.343 55.0686 197.562 54.3623 196.987 53.3623C196.424 52.3498 196.143 50.9436 196.143 49.1436V39.0373H193.405V36.6186L196.555 34.7061L198.205 30.2811H201.862V34.7436H207.73V39.0373H201.862V49.1436C201.862 49.9436 202.087 50.5436 202.537 50.9436C202.999 51.3311 203.605 51.5248 204.355 51.5248ZM245.099 55.7061H239.305V43.8748H228.449V55.7061H222.637V28.2936H228.449V39.0373H239.305V28.2936H245.099V55.7061ZM260.23 34.3498C262.168 34.3498 263.837 34.7248 265.237 35.4748C266.637 36.2123 267.718 37.2873 268.48 38.6998C269.243 40.1123 269.624 41.8373 269.624 43.8748V46.6498H256.105C256.168 48.2623 256.649 49.5311 257.549 50.4561C258.462 51.3686 259.724 51.8248 261.337 51.8248C262.674 51.8248 263.899 51.6873 265.012 51.4123C266.124 51.1373 267.268 50.7248 268.443 50.1748V54.5998C267.405 55.1123 266.318 55.4873 265.18 55.7248C264.055 55.9623 262.687 56.0811 261.074 56.0811C258.974 56.0811 257.112 55.6936 255.487 54.9186C253.874 54.1436 252.605 52.9623 251.68 51.3748C250.768 49.7873 250.312 47.7873 250.312 45.3748C250.312 42.9248 250.724 40.8873 251.549 39.2623C252.387 37.6248 253.549 36.3998 255.037 35.5873C256.524 34.7623 258.255 34.3498 260.23 34.3498ZM260.268 38.4186C259.155 38.4186 258.23 38.7748 257.493 39.4873C256.768 40.1998 256.349 41.3186 256.237 42.8436H264.262C264.249 41.9936 264.093 41.2373 263.793 40.5748C263.505 39.9123 263.068 39.3873 262.48 38.9998C261.905 38.6123 261.168 38.4186 260.268 38.4186ZM282.862 34.3123C285.674 34.3123 287.83 34.9248 289.33 36.1498C290.83 37.3748 291.58 39.2373 291.58 41.7373V55.7061H287.587L286.48 52.8561H286.33C285.73 53.6061 285.118 54.2186 284.493 54.6936C283.868 55.1686 283.149 55.5186 282.337 55.7436C281.524 55.9686 280.537 56.0811 279.374 56.0811C278.137 56.0811 277.024 55.8436 276.037 55.3686C275.062 54.8936 274.293 54.1686 273.73 53.1936C273.168 52.2061 272.887 50.9561 272.887 49.4436C272.887 47.2186 273.668 45.5811 275.23 44.5311C276.793 43.4686 279.137 42.8811 282.262 42.7686L285.899 42.6561V41.7373C285.899 40.6373 285.612 39.8311 285.037 39.3186C284.462 38.8061 283.662 38.5498 282.637 38.5498C281.624 38.5498 280.63 38.6936 279.655 38.9811C278.68 39.2686 277.705 39.6311 276.73 40.0686L274.837 36.2061C275.949 35.6186 277.193 35.1561 278.568 34.8186C279.955 34.4811 281.387 34.3123 282.862 34.3123ZM285.899 45.9936L283.687 46.0686C281.837 46.1186 280.549 46.4498 279.824 47.0623C279.112 47.6748 278.755 48.4811 278.755 49.4811C278.755 50.3561 279.012 50.9811 279.524 51.3561C280.037 51.7186 280.705 51.8998 281.53 51.8998C282.755 51.8998 283.787 51.5373 284.624 50.8123C285.474 50.0873 285.899 49.0561 285.899 47.7186V45.9936ZM303.205 55.7061H297.487V26.5311H303.205V55.7061ZM318.055 51.5248C318.68 51.5248 319.287 51.4623 319.874 51.3373C320.474 51.2123 321.068 51.0561 321.655 50.8686V55.1248C321.043 55.3998 320.28 55.6248 319.368 55.7998C318.468 55.9873 317.48 56.0811 316.405 56.0811C315.155 56.0811 314.03 55.8811 313.03 55.4811C312.043 55.0686 311.262 54.3623 310.687 53.3623C310.124 52.3498 309.843 50.9436 309.843 49.1436V39.0373H307.105V36.6186L310.255 34.7061L311.905 30.2811H315.562V34.7436H321.43V39.0373H315.562V49.1436C315.562 49.9436 315.787 50.5436 316.237 50.9436C316.699 51.3311 317.305 51.5248 318.055 51.5248ZM331.63 26.5311V32.4748C331.63 33.5123 331.593 34.4998 331.518 35.4373C331.455 36.3748 331.405 37.0373 331.368 37.4248H331.668C332.118 36.6998 332.649 36.1123 333.262 35.6623C333.887 35.2123 334.574 34.8811 335.324 34.6686C336.074 34.4561 336.88 34.3498 337.743 34.3498C339.255 34.3498 340.574 34.6186 341.699 35.1561C342.824 35.6811 343.699 36.5123 344.324 37.6498C344.949 38.7748 345.262 40.2373 345.262 42.0373V55.7061H339.543V43.4623C339.543 41.9623 339.268 40.8311 338.718 40.0686C338.168 39.3061 337.318 38.9248 336.168 38.9248C335.018 38.9248 334.112 39.1936 333.449 39.7311C332.787 40.2561 332.318 41.0373 332.043 42.0748C331.768 43.0998 331.63 44.3561 331.63 45.8436V55.7061H325.912V26.5311H331.63ZM370.33 28.2936C373.868 28.2936 376.449 29.0561 378.074 30.5811C379.699 32.0936 380.512 34.1811 380.512 36.8436C380.512 38.0436 380.33 39.1936 379.968 40.2936C379.605 41.3811 379.012 42.3498 378.187 43.1998C377.374 44.0498 376.287 44.7248 374.924 45.2248C373.562 45.7123 371.88 45.9561 369.88 45.9561H367.387V55.7061H361.574V28.2936H370.33ZM370.03 33.0561H367.387V41.1936H369.299C370.387 41.1936 371.33 41.0498 372.13 40.7623C372.93 40.4748 373.549 40.0248 373.987 39.4123C374.424 38.7998 374.643 38.0123 374.643 37.0498C374.643 35.6998 374.268 34.6998 373.518 34.0498C372.768 33.3873 371.605 33.0561 370.03 33.0561ZM390.955 55.7061H385.237V26.5311H390.955V55.7061ZM405.562 34.3123C408.374 34.3123 410.53 34.9248 412.03 36.1498C413.53 37.3748 414.28 39.2373 414.28 41.7373V55.7061H410.287L409.18 52.8561H409.03C408.43 53.6061 407.818 54.2186 407.193 54.6936C406.568 55.1686 405.849 55.5186 405.037 55.7436C404.224 55.9686 403.237 56.0811 402.074 56.0811C400.837 56.0811 399.724 55.8436 398.737 55.3686C397.762 54.8936 396.993 54.1686 396.43 53.1936C395.868 52.2061 395.587 50.9561 395.587 49.4436C395.587 47.2186 396.368 45.5811 397.93 44.5311C399.493 43.4686 401.837 42.8811 404.962 42.7686L408.599 42.6561V41.7373C408.599 40.6373 408.312 39.8311 407.737 39.3186C407.162 38.8061 406.362 38.5498 405.337 38.5498C404.324 38.5498 403.33 38.6936 402.355 38.9811C401.38 39.2686 400.405 39.6311 399.43 40.0686L397.537 36.2061C398.649 35.6186 399.893 35.1561 401.268 34.8186C402.655 34.4811 404.087 34.3123 405.562 34.3123ZM408.599 45.9936L406.387 46.0686C404.537 46.1186 403.249 46.4498 402.524 47.0623C401.812 47.6748 401.455 48.4811 401.455 49.4811C401.455 50.3561 401.712 50.9811 402.224 51.3561C402.737 51.7186 403.405 51.8998 404.23 51.8998C405.455 51.8998 406.487 51.5373 407.324 50.8123C408.174 50.0873 408.599 49.0561 408.599 47.7186V45.9936ZM432.093 34.3498C434.33 34.3498 436.13 34.9623 437.493 36.1873C438.855 37.3998 439.537 39.3498 439.537 42.0373V55.7061H433.818V43.4623C433.818 41.9623 433.543 40.8311 432.993 40.0686C432.455 39.3061 431.605 38.9248 430.443 38.9248C428.693 38.9248 427.499 39.5186 426.862 40.7061C426.224 41.8936 425.905 43.6061 425.905 45.8436V55.7061H420.187V34.7436H424.555L425.324 37.4248H425.643C426.093 36.6998 426.649 36.1123 427.312 35.6623C427.987 35.2123 428.73 34.8811 429.543 34.6686C430.368 34.4561 431.218 34.3498 432.093 34.3498Z" fill="white"/>
</svg>
