<svg width="277" height="50" viewBox="0 0 277 50" fill="none" xmlns="http://www.w3.org/2000/svg">
<path d="M25.1721 7.50579C25.1721 7.50579 22.3448 15.9902 25.1721 23.0934C27.9994 30.1967 33.8613 41.2336 31.4486 47.4402C31.4486 47.4402 39.2412 39.4403 36.2066 30.1292C33.172 20.8181 27.862 19.1622 25.1721 7.50579Z" fill="#90C7DF"/>
<path d="M41.5889 12.2975C41.4659 18.3451 38.359 21.0977 35.7631 23.5297C36.7128 25.1928 37.6094 27.0801 38.3711 29.4206C38.6965 30.4208 38.9158 31.4067 39.046 32.3708C40.967 30.3485 46.4071 21.8039 41.5865 12.2975H41.5889Z" fill="#90C7DF"/>
<path d="M28.414 48.966C28.414 48.966 28.6815 48.966 29.3275 46.6159C30.5327 42.2339 27.4137 34.1304 24.8129 28.1045C24.6756 27.7839 24.5382 27.4682 24.4032 27.1548C24.2224 26.762 24.0537 26.3691 23.9018 25.981C23.603 25.2748 23.3185 24.5903 23.0558 23.9346C22.0194 21.3339 21.6578 18.5982 21.6385 16.0962C13.9544 29.6736 22.217 40.6286 25.377 43.9235C27.1727 45.7964 28.4718 48.0187 28.4116 48.966H28.414Z" fill="#F6BD7A"/>
<path d="M16.4153 23.6623C16.4153 25.176 15.1885 26.4052 13.6724 26.4052C12.1563 26.4052 10.9294 25.1784 10.9294 23.6623C10.9294 22.1462 12.1563 20.9193 13.6724 20.9193C15.1885 20.9193 16.4153 22.1462 16.4153 23.6623Z" fill="#F6BD7A"/>
<path d="M37.378 16.1251C37.378 17.7256 36.0813 19.0224 34.4808 19.0224C32.8803 19.0224 31.5836 17.7256 31.5836 16.1251C31.5836 14.5247 32.8803 13.2279 34.4808 13.2279C36.0813 13.2279 37.378 14.5247 37.378 16.1251Z" fill="#90C7DF"/>
<path d="M16.8564 32.9951C9.22048 28.9626 7.65858 23.6623 7.65858 23.6623C7.7116 25.3399 7.89961 26.8945 8.19608 28.3383C9.24699 32.5178 12.2647 38.4738 20.7949 41.7928C19.3222 39.5946 17.7338 36.5937 16.8588 32.9951H16.8564Z" fill="#F6C993"/>
<path d="M26.1338 48.966C26.0374 48.4477 25.1769 46.9967 23.7379 45.4975C23.4511 45.1986 23.0293 44.7358 22.5255 44.1236C11.1656 43.2004 2.23533 33.6893 2.23533 22.0931C2.23292 13.4424 7.20303 5.95353 14.4437 2.32356C5.91109 6.30303 -0.00146484 14.9585 -0.00146484 24.9928C-0.00146484 38.804 11.1945 50 25.0058 50C25.3625 50 25.7168 49.9904 26.0687 49.9759C26.0687 49.9759 26.329 50 26.1338 48.966Z" fill="#F78600"/>
<path d="M25.7771 0L25.7843 0.036155C37.3202 0.780949 46.4457 10.3717 46.4457 22.0931C46.4457 28.8493 43.4135 34.8992 38.6362 38.9534C37.4479 43.6584 34.6905 47.1968 33.5625 48.4984C43.158 45.0034 50.013 35.8007 50.013 24.9952C50.0106 11.4419 39.2292 0.407347 25.7771 0Z" fill="#2C9ACB"/>
<path d="M72.6575 34L71.4153 29.9219H65.1693L63.9271 34H60.013L66.0599 16.7969H70.5013L76.5716 34H72.6575ZM70.5482 26.875L69.306 22.8906C69.2278 22.625 69.1224 22.2852 68.9896 21.8711C68.8646 21.4492 68.7357 21.0234 68.6028 20.5938C68.4778 20.1562 68.3763 19.7773 68.2982 19.457C68.22 19.7773 68.1107 20.1758 67.97 20.6523C67.8372 21.1211 67.7083 21.5664 67.5833 21.9883C67.4583 22.4102 67.3685 22.7109 67.3138 22.8906L66.0833 26.875H70.5482ZM87.5989 30.1094C87.5989 31 87.388 31.7539 86.9661 32.3711C86.5521 32.9805 85.931 33.4453 85.1028 33.7656C84.2747 34.0781 83.2435 34.2344 82.0091 34.2344C81.095 34.2344 80.3099 34.1758 79.6536 34.0586C79.0052 33.9414 78.3489 33.7461 77.6849 33.4727V30.5195C78.3958 30.8398 79.1575 31.1055 79.97 31.3164C80.7903 31.5195 81.5091 31.6211 82.1263 31.6211C82.8216 31.6211 83.3177 31.5195 83.6146 31.3164C83.9193 31.1055 84.0716 30.832 84.0716 30.4961C84.0716 30.2773 84.0091 30.082 83.8841 29.9102C83.7669 29.7305 83.5091 29.5312 83.1107 29.3125C82.7122 29.0859 82.0872 28.793 81.2357 28.4336C80.4153 28.0898 79.7396 27.7422 79.2083 27.3906C78.6849 27.0391 78.2943 26.625 78.0364 26.1484C77.7864 25.6641 77.6614 25.0508 77.6614 24.3086C77.6614 23.0977 78.1302 22.1875 79.0677 21.5781C80.013 20.9609 81.2747 20.6523 82.8528 20.6523C83.6653 20.6523 84.4388 20.7344 85.1732 20.8984C85.9153 21.0625 86.6771 21.3242 87.4583 21.6836L86.3802 24.2617C85.7318 23.9805 85.1185 23.75 84.5403 23.5703C83.97 23.3906 83.388 23.3008 82.7943 23.3008C82.2708 23.3008 81.8763 23.3711 81.6107 23.5117C81.345 23.6523 81.2122 23.8672 81.2122 24.1562C81.2122 24.3672 81.2786 24.5547 81.4114 24.7188C81.5521 24.8828 81.8177 25.0664 82.2083 25.2695C82.6068 25.4648 83.1888 25.7188 83.9544 26.0312C84.6966 26.3359 85.3411 26.6562 85.888 26.9922C86.4349 27.3203 86.8568 27.7305 87.1536 28.2227C87.4505 28.707 87.5989 29.3359 87.5989 30.1094ZM99.5286 30.1094C99.5286 31 99.3177 31.7539 98.8958 32.3711C98.4818 32.9805 97.8607 33.4453 97.0325 33.7656C96.2044 34.0781 95.1732 34.2344 93.9388 34.2344C93.0247 34.2344 92.2396 34.1758 91.5833 34.0586C90.9349 33.9414 90.2786 33.7461 89.6146 33.4727V30.5195C90.3255 30.8398 91.0872 31.1055 91.8997 31.3164C92.72 31.5195 93.4388 31.6211 94.056 31.6211C94.7513 31.6211 95.2474 31.5195 95.5443 31.3164C95.8489 31.1055 96.0013 30.832 96.0013 30.4961C96.0013 30.2773 95.9388 30.082 95.8138 29.9102C95.6966 29.7305 95.4388 29.5312 95.0403 29.3125C94.6419 29.0859 94.0169 28.793 93.1653 28.4336C92.345 28.0898 91.6693 27.7422 91.138 27.3906C90.6146 27.0391 90.2239 26.625 89.9661 26.1484C89.7161 25.6641 89.5911 25.0508 89.5911 24.3086C89.5911 23.0977 90.0599 22.1875 90.9974 21.5781C91.9427 20.9609 93.2044 20.6523 94.7825 20.6523C95.595 20.6523 96.3685 20.7344 97.1028 20.8984C97.845 21.0625 98.6068 21.3242 99.388 21.6836L98.3099 24.2617C97.6614 23.9805 97.0482 23.75 96.47 23.5703C95.8997 23.3906 95.3177 23.3008 94.7239 23.3008C94.2005 23.3008 93.806 23.3711 93.5403 23.5117C93.2747 23.6523 93.1419 23.8672 93.1419 24.1562C93.1419 24.3672 93.2083 24.5547 93.3411 24.7188C93.4818 24.8828 93.7474 25.0664 94.138 25.2695C94.5364 25.4648 95.1185 25.7188 95.8841 26.0312C96.6263 26.3359 97.2708 26.6562 97.8177 26.9922C98.3646 27.3203 98.7864 27.7305 99.0833 28.2227C99.3802 28.707 99.5286 29.3359 99.5286 30.1094ZM105.892 20.8984V34H102.318V20.8984H105.892ZM104.111 15.7656C104.642 15.7656 105.099 15.8906 105.482 16.1406C105.865 16.3828 106.056 16.8398 106.056 17.5117C106.056 18.1758 105.865 18.6367 105.482 18.8945C105.099 19.1445 104.642 19.2695 104.111 19.2695C103.572 19.2695 103.111 19.1445 102.728 18.8945C102.353 18.6367 102.165 18.1758 102.165 17.5117C102.165 16.8398 102.353 16.3828 102.728 16.1406C103.111 15.8906 103.572 15.7656 104.111 15.7656ZM118.794 30.1094C118.794 31 118.583 31.7539 118.161 32.3711C117.747 32.9805 117.126 33.4453 116.298 33.7656C115.47 34.0781 114.439 34.2344 113.204 34.2344C112.29 34.2344 111.505 34.1758 110.849 34.0586C110.201 33.9414 109.544 33.7461 108.88 33.4727V30.5195C109.591 30.8398 110.353 31.1055 111.165 31.3164C111.986 31.5195 112.704 31.6211 113.322 31.6211C114.017 31.6211 114.513 31.5195 114.81 31.3164C115.115 31.1055 115.267 30.832 115.267 30.4961C115.267 30.2773 115.204 30.082 115.079 29.9102C114.962 29.7305 114.704 29.5312 114.306 29.3125C113.908 29.0859 113.283 28.793 112.431 28.4336C111.611 28.0898 110.935 27.7422 110.404 27.3906C109.88 27.0391 109.49 26.625 109.232 26.1484C108.982 25.6641 108.857 25.0508 108.857 24.3086C108.857 23.0977 109.326 22.1875 110.263 21.5781C111.208 20.9609 112.47 20.6523 114.048 20.6523C114.861 20.6523 115.634 20.7344 116.368 20.8984C117.111 21.0625 117.872 21.3242 118.654 21.6836L117.576 24.2617C116.927 23.9805 116.314 23.75 115.736 23.5703C115.165 23.3906 114.583 23.3008 113.99 23.3008C113.466 23.3008 113.072 23.3711 112.806 23.5117C112.54 23.6523 112.408 23.8672 112.408 24.1562C112.408 24.3672 112.474 24.5547 112.607 24.7188C112.747 24.8828 113.013 25.0664 113.404 25.2695C113.802 25.4648 114.384 25.7188 115.15 26.0312C115.892 26.3359 116.536 26.6562 117.083 26.9922C117.63 27.3203 118.052 27.7305 118.349 28.2227C118.646 28.707 118.794 29.3359 118.794 30.1094ZM127.103 31.3867C127.493 31.3867 127.872 31.3477 128.24 31.2695C128.615 31.1914 128.986 31.0938 129.353 30.9766V33.6367C128.97 33.8086 128.493 33.9492 127.923 34.0586C127.361 34.1758 126.743 34.2344 126.072 34.2344C125.29 34.2344 124.587 34.1094 123.962 33.8594C123.345 33.6016 122.857 33.1602 122.497 32.5352C122.146 31.9023 121.97 31.0234 121.97 29.8984V23.582H120.259V22.0703L122.228 20.875L123.259 18.1094H125.544V20.8984H129.212V23.582H125.544V29.8984C125.544 30.3984 125.685 30.7734 125.966 31.0234C126.255 31.2656 126.634 31.3867 127.103 31.3867ZM152.568 34H148.947V26.6055H142.161V34H138.529V16.8672H142.161V23.582H148.947V16.8672H152.568V34ZM162.025 20.6523C163.236 20.6523 164.279 20.8867 165.154 21.3555C166.029 21.8164 166.704 22.4883 167.181 23.3711C167.658 24.2539 167.896 25.332 167.896 26.6055V28.3398H159.447C159.486 29.3477 159.786 30.1406 160.349 30.7188C160.919 31.2891 161.708 31.5742 162.716 31.5742C163.552 31.5742 164.318 31.4883 165.013 31.3164C165.708 31.1445 166.423 30.8867 167.158 30.543V33.3086C166.509 33.6289 165.829 33.8633 165.118 34.0117C164.415 34.1602 163.56 34.2344 162.552 34.2344C161.24 34.2344 160.076 33.9922 159.06 33.5078C158.052 33.0234 157.259 32.2852 156.681 31.293C156.111 30.3008 155.826 29.0508 155.826 27.543C155.826 26.0117 156.083 24.7383 156.599 23.7227C157.122 22.6992 157.849 21.9336 158.779 21.4258C159.708 20.9102 160.79 20.6523 162.025 20.6523ZM162.048 23.1953C161.353 23.1953 160.775 23.418 160.314 23.8633C159.861 24.3086 159.599 25.0078 159.529 25.9609H164.544C164.536 25.4297 164.439 24.957 164.251 24.543C164.072 24.1289 163.798 23.8008 163.431 23.5586C163.072 23.3164 162.611 23.1953 162.048 23.1953ZM176.169 20.6289C177.927 20.6289 179.275 21.0117 180.212 21.7773C181.15 22.543 181.618 23.707 181.618 25.2695V34H179.122L178.431 32.2188H178.337C177.962 32.6875 177.579 33.0703 177.189 33.3672C176.798 33.6641 176.349 33.8828 175.841 34.0234C175.333 34.1641 174.716 34.2344 173.99 34.2344C173.216 34.2344 172.521 34.0859 171.904 33.7891C171.294 33.4922 170.814 33.0391 170.462 32.4297C170.111 31.8125 169.935 31.0312 169.935 30.0859C169.935 28.6953 170.423 27.6719 171.4 27.0156C172.376 26.3516 173.841 25.9844 175.794 25.9141L178.068 25.8438V25.2695C178.068 24.582 177.888 24.0781 177.529 23.7578C177.169 23.4375 176.669 23.2773 176.029 23.2773C175.396 23.2773 174.775 23.3672 174.165 23.5469C173.556 23.7266 172.947 23.9531 172.337 24.2266L171.154 21.8125C171.849 21.4453 172.626 21.1562 173.486 20.9453C174.353 20.7344 175.247 20.6289 176.169 20.6289ZM178.068 27.9297L176.685 27.9766C175.529 28.0078 174.724 28.2148 174.271 28.5977C173.826 28.9805 173.603 29.4844 173.603 30.1094C173.603 30.6562 173.763 31.0469 174.083 31.2812C174.404 31.5078 174.822 31.6211 175.337 31.6211C176.103 31.6211 176.747 31.3945 177.271 30.9414C177.802 30.4883 178.068 29.8438 178.068 29.0078V27.9297ZM188.884 34H185.31V15.7656H188.884V34ZM198.165 31.3867C198.556 31.3867 198.935 31.3477 199.302 31.2695C199.677 31.1914 200.048 31.0938 200.415 30.9766V33.6367C200.033 33.8086 199.556 33.9492 198.986 34.0586C198.423 34.1758 197.806 34.2344 197.134 34.2344C196.353 34.2344 195.65 34.1094 195.025 33.8594C194.408 33.6016 193.919 33.1602 193.56 32.5352C193.208 31.9023 193.033 31.0234 193.033 29.8984V23.582H191.322V22.0703L193.29 20.875L194.322 18.1094H196.607V20.8984H200.275V23.582H196.607V29.8984C196.607 30.3984 196.747 30.7734 197.029 31.0234C197.318 31.2656 197.697 31.3867 198.165 31.3867ZM206.65 15.7656V19.4805C206.65 20.1289 206.626 20.7461 206.579 21.332C206.54 21.918 206.509 22.332 206.486 22.5742H206.673C206.954 22.1211 207.286 21.7539 207.669 21.4727C208.06 21.1914 208.49 20.9844 208.958 20.8516C209.427 20.7188 209.931 20.6523 210.47 20.6523C211.415 20.6523 212.24 20.8203 212.943 21.1562C213.646 21.4844 214.193 22.0039 214.583 22.7148C214.974 23.418 215.169 24.332 215.169 25.457V34H211.595V26.3477C211.595 25.4102 211.423 24.7031 211.079 24.2266C210.736 23.75 210.204 23.5117 209.486 23.5117C208.767 23.5117 208.201 23.6797 207.786 24.0156C207.372 24.3438 207.079 24.832 206.908 25.4805C206.736 26.1211 206.65 26.9062 206.65 27.8359V34H203.076V15.7656H206.65ZM230.837 16.8672C233.048 16.8672 234.661 17.3438 235.677 18.2969C236.693 19.2422 237.201 20.5469 237.201 22.2109C237.201 22.9609 237.087 23.6797 236.861 24.3672C236.634 25.0469 236.263 25.6523 235.747 26.1836C235.24 26.7148 234.56 27.1367 233.708 27.4492C232.857 27.7539 231.806 27.9062 230.556 27.9062H228.997V34H225.365V16.8672H230.837ZM230.65 19.8438H228.997V24.9297H230.193C230.872 24.9297 231.462 24.8398 231.962 24.6602C232.462 24.4805 232.849 24.1992 233.122 23.8164C233.396 23.4336 233.533 22.9414 233.533 22.3398C233.533 21.4961 233.298 20.8711 232.829 20.4648C232.361 20.0508 231.634 19.8438 230.65 19.8438ZM243.728 34H240.154V15.7656H243.728V34ZM252.857 20.6289C254.615 20.6289 255.962 21.0117 256.9 21.7773C257.837 22.543 258.306 23.707 258.306 25.2695V34H255.81L255.118 32.2188H255.025C254.65 32.6875 254.267 33.0703 253.876 33.3672C253.486 33.6641 253.036 33.8828 252.529 34.0234C252.021 34.1641 251.404 34.2344 250.677 34.2344C249.904 34.2344 249.208 34.0859 248.591 33.7891C247.982 33.4922 247.501 33.0391 247.15 32.4297C246.798 31.8125 246.622 31.0312 246.622 30.0859C246.622 28.6953 247.111 27.6719 248.087 27.0156C249.064 26.3516 250.529 25.9844 252.482 25.9141L254.755 25.8438V25.2695C254.755 24.582 254.576 24.0781 254.216 23.7578C253.857 23.4375 253.357 23.2773 252.716 23.2773C252.083 23.2773 251.462 23.3672 250.853 23.5469C250.243 23.7266 249.634 23.9531 249.025 24.2266L247.841 21.8125C248.536 21.4453 249.314 21.1562 250.173 20.9453C251.04 20.7344 251.935 20.6289 252.857 20.6289ZM254.755 27.9297L253.372 27.9766C252.216 28.0078 251.411 28.2148 250.958 28.5977C250.513 28.9805 250.29 29.4844 250.29 30.1094C250.29 30.6562 250.451 31.0469 250.771 31.2812C251.091 31.5078 251.509 31.6211 252.025 31.6211C252.79 31.6211 253.435 31.3945 253.958 30.9414C254.49 30.4883 254.755 29.8438 254.755 29.0078V27.9297ZM269.439 20.6523C270.837 20.6523 271.962 21.0352 272.814 21.8008C273.665 22.5586 274.091 23.7773 274.091 25.457V34H270.517V26.3477C270.517 25.4102 270.345 24.7031 270.001 24.2266C269.665 23.75 269.134 23.5117 268.408 23.5117C267.314 23.5117 266.568 23.8828 266.169 24.625C265.771 25.3672 265.572 26.4375 265.572 27.8359V34H261.997V20.8984H264.728L265.208 22.5742H265.408C265.689 22.1211 266.036 21.7539 266.451 21.4727C266.872 21.1914 267.337 20.9844 267.845 20.8516C268.361 20.7188 268.892 20.6523 269.439 20.6523Z" fill="#222222"/>
</svg>
